<?xml version="1.0" standalone="no"?>
<!DOCTYPE svg PUBLIC "-//W3C//DTD SVG 20010904//EN"
 "http://www.w3.org/TR/2001/REC-SVG-20010904/DTD/svg10.dtd">
<svg version="1.0" xmlns="http://www.w3.org/2000/svg"
 width="796.000000pt" height="796.000000pt" viewBox="0 0 796.000000 796.000000"
 preserveAspectRatio="xMidYMid meet">
<metadata>
Created by potrace 1.14, written by Peter Selinger 2001-2017
</metadata>
<g transform="translate(0.000000,796.000000) scale(0.100000,-0.100000)"
fill="#000000" stroke="none">
<path d="M0 3980 l0 -3980 3980 0 3980 0 0 3980 0 3980 -3980 0 -3980 0 0
-3980z m4552 1351 c242 -62 437 -257 492 -491 18 -76 21 -236 5 -312 -6 -29
-31 -96 -56 -148 -38 -79 -59 -108 -127 -176 -90 -90 -153 -129 -271 -171
l-80 -28 -472 -3 c-419 -3 -473 -5 -473 -19 0 -10 5 -13 18 -8 9 4 36 10 59
12 34 4 44 2 49 -11 11 -28 -17 -76 -73 -124 l-53 -46 0 -114 c0 -103 2 -113
18 -108 55 16 69 17 81 2 20 -23 -2 -68 -55 -115 l-44 -39 0 -112 c0 -103 1
-112 18 -105 33 13 67 15 81 6 22 -15 -4 -65 -59 -114 -38 -34 -72 -87 -171
-269 -68 -125 -127 -224 -130 -220 -4 4 -35 58 -69 120 -34 61 -62 112 -64
112 -1 0 -19 -9 -41 -20 -46 -23 -78 -26 -94 -7 -23 29 74 121 234 222 101 64
89 66 -65 13 -129 -45 -126 -45 -139 -7 -6 17 -11 43 -11 55 0 21 -5 24 -34
24 -45 0 -66 9 -66 27 0 40 176 185 333 273 32 18 56 35 53 37 -8 9 -169 -28
-228 -52 l-58 -23 0 65 c0 58 -2 64 -17 57 -10 -4 -35 -9 -55 -12 -28 -3 -39
0 -44 12 -18 47 124 170 354 306 40 23 71 44 70 46 -6 6 -203 -38 -252 -56
-28 -11 -52 -20 -53 -20 -2 0 -3 29 -3 65 0 36 -2 65 -4 65 -2 0 -20 -7 -39
-15 -45 -18 -68 -19 -91 -2 -17 13 -17 16 -3 44 31 59 185 180 355 278 45 26
82 50 82 53 0 18 -178 -28 -282 -73 -16 -6 -18 -1 -18 44 0 28 -2 51 -5 51 -2
0 -19 -9 -37 -20 -40 -24 -81 -26 -102 -4 -14 13 -14 19 -2 43 34 65 201 195
396 307 57 33 79 50 67 52 -35 7 -153 -19 -234 -53 l-83 -33 0 152 0 152 -75
219 c-41 120 -75 222 -75 226 0 5 353 9 783 9 742 0 788 -1 859 -19z"/>
<path d="M3570 4805 l0 -44 43 19 c52 24 112 26 121 4 11 -28 -33 -93 -99
-145 -60 -47 -65 -54 -65 -90 l0 -39 441 0 c437 0 442 0 481 22 119 67 110
242 -16 299 -38 17 -74 19 -473 19 l-433 0 0 -45z"/>
</g>
</svg>
